{"title":"The.Last.Will.And.Testament.Of.Rosalind.Leigh.2012 WEBRip XViD j","uid":8762863,"size":736654497,"categoryP":"video","categoryS":"movies","magnet":"?xt=urn:btih:75a3e892e1bced95edd2c24c12faa0e91b95395e&amp;dn=The.Last.Will.And.Testament.Of.Rosalind.Leigh.2012+WEBRip+XViD+j&amp;tr=udp%3A%2F%2Ftracker.openbittorrent.com%3A80&amp;tr=udp%3A%2F%2Fopen.demonii.com%3A1337&amp;tr=udp%3A%2F%2Ftracker.coppersurfer.tk%3A6969&amp;tr=udp%3A%2F%2Fexodus.desync.com%3A6969","seeders":3,"leechers":3,"uploader":"juggs99","files":4,"time":1375276538,"description":"Format                                   : AVI\nFormat/Info                              : Audio Video Interleave\nFile size                                : 697 MiB\nDuration                                 : 1h 20mn\nOverall bit rate                         : 1 212 Kbps\nWriting library                          : VirtualDub build 32842/release\n\nVideo\nID                                       : 0\nFormat                                   : MPEG-4 Visual\nFormat profile                           : Advanced Simple@L5\nFormat settings, BVOP                    : 2\nFormat settings, QPel                    : No\nFormat settings, GMC                     : No warppoints\nFormat settings, Matrix                  : Default (H.263)\nMuxing mode                              : Packed bitstream\nCodec ID                                 : XVID\nCodec ID/Hint                            : XviD\nDuration                                 : 1h 20mn\nBit rate                                 : 1 074 Kbps\nWidth                                    : 640 pixels\nHeight                                   : 352 pixels\nDisplay aspect ratio                     : 16:9\nFrame rate                               : 23.976 fps\nColor space                              : YUV\nChroma subsampling                       : 4:2:0\nBit depth                                : 8 bits\nScan type                                : Progressive\nCompression mode                         : Lossy\nBits/(Pixel*Frame)                       : 0.199\nStream size                              : 618 MiB (89%)\nWriting library                          : XviD 64\n\nAudio\nID                                       : 1\nFormat                                   : MPEG Audio\nFormat version                           : Version 1\nFormat profile                           : Layer 3\nCodec ID                                 : 55\nCodec ID/Hint                            : MP3\nDuration                                 : 1h 20mn\nBit rate mode                            : Constant\nBit rate                                 : 128 Kbps\nChannel(s)                               : 2 channels\nSampling rate                            : 48.0 KHz\nCompression mode                         : Lossy\nStream size                              : 73.7 MiB (11%)\nAlignment                                : Split accross interleaves\nInterleave, duration                     : 42 ms (1.00 video frame)\nInterleave, preload duration             : 500 ms\nWriting library                          : LAME3.99r\n\n &lt;a href=&quot;\nhttp://www.shotpix.com/photos/20130731137526870281364.png&quot; rel=&quot;nofollow&quot; target=&quot;_NEW&quot;&gt;\nhttp://www.shotpix.com/photos/20130731137526870281364.png&lt;/a&gt; &lt;a href=&quot;\nhttp://www.shotpix.com/photos/20130731137526870190490.png&quot; rel=&quot;nofollow&quot; target=&quot;_NEW&quot;&gt;\nhttp://www.shotpix.com/photos/20130731137526870190490.png&lt;/a&gt; &lt;a href=&quot;\nhttp://www.shotpix.com/photos/20130731137526870200201.png&quot; rel=&quot;nofollow&quot; target=&quot;_NEW&quot;&gt;\nhttp://www.shotpix.com/photos/20130731137526870200201.png&lt;/a&gt;","torrent":{"xt":"urn:btih:75a3e892e1bced95edd2c24c12faa0e91b95395e","amp;dn":"The.Last.Will.And.Testament.Of.Rosalind.Leigh.2012+WEBRip+XViD+j","amp;tr":["udp%3A%2F%2Ftracker.openbittorrent.com%3A80","udp%3A%2F%2Fopen.demonii.com%3A1337","udp%3A%2F%2Ftracker.coppersurfer.tk%3A6969","udp%3A%2F%2Fexodus.desync.com%3A6969"],"infoHash":"75a3e892e1bced95edd2c24c12faa0e91b95395e","infoHashBuffer":{"type":"Buffer","data":[117,163,232,146,225,188,237,149,237,210,194,76,18,250,160,233,27,149,57,94]},"announce":[],"urlList":[]}}